<svg width="32" height="32" viewBox="0 0 32 32" fill="none" xmlns="http://www.w3.org/2000/svg">
<path d="M10 29.3333C8.71115 29.3333 7.61115 28.8778 6.70004 27.9667C5.78893 27.0556 5.33337 25.9556 5.33337 24.6667V7.33333C5.33337 6.04444 5.78893 4.94444 6.70004 4.03333C7.61115 3.12222 8.71115 2.66666 10 2.66666H24C24.7334 2.66666 25.3612 2.92778 25.8834 3.45C26.4056 3.97222 26.6667 4.6 26.6667 5.33333V22.0333C26.6667 22.2111 26.5945 22.3722 26.45 22.5167C26.3056 22.6611 26.0445 22.8222 25.6667 23C25.3556 23.1556 25.1112 23.3778 24.9334 23.6667C24.7556 23.9556 24.6667 24.2889 24.6667 24.6667C24.6667 25.0444 24.7556 25.3833 24.9334 25.6833C25.1112 25.9833 25.3556 26.2 25.6667 26.3333C25.9778 26.4667 26.2223 26.65 26.4 26.8833C26.5778 27.1167 26.6667 27.3667 26.6667 27.6333V27.9667C26.6667 28.3444 26.5389 28.6667 26.2834 28.9333C26.0278 29.2 25.7112 29.3333 25.3334 29.3333H10ZM12 20C12.3778 20 12.6945 19.8722 12.95 19.6167C13.2056 19.3611 13.3334 19.0444 13.3334 18.6667V6.66666C13.3334 6.28889 13.2056 5.97222 12.95 5.71666C12.6945 5.46111 12.3778 5.33333 12 5.33333C11.6223 5.33333 11.3056 5.46111 11.05 5.71666C10.7945 5.97222 10.6667 6.28889 10.6667 6.66666V18.6667C10.6667 19.0444 10.7945 19.3611 11.05 19.6167C11.3056 19.8722 11.6223 20 12 20ZM10 26.6667H22.4334C22.3 26.3556 22.1945 26.0389 22.1167 25.7167C22.0389 25.3944 22 25.0444 22 24.6667C22 24.3111 22.0334 23.9667 22.1 23.6333C22.1667 23.3 22.2778 22.9778 22.4334 22.6667H10C9.42226 22.6667 8.94449 22.8611 8.56671 23.25C8.18893 23.6389 8.00004 24.1111 8.00004 24.6667C8.00004 25.2444 8.18893 25.7222 8.56671 26.1C8.94449 26.4778 9.42226 26.6667 10 26.6667Z" fill="black"/>
</svg>
