<svg width="32" height="32" viewBox="0 0 32 32" fill="none" xmlns="http://www.w3.org/2000/svg">
<g clip-path="url(#clip0_113_3924)">
<path d="M29.8844 15.5822C26.8888 10.0444 21.6355 6.69334 15.8221 6.69334C10.0088 6.69334 4.74659 10.0444 1.7777 15.5822L1.52881 16L1.75992 16.4267C4.75548 21.9644 10.0088 25.3156 15.8221 25.3156C21.6355 25.3156 26.8977 22.0089 29.8844 16.4267L30.1155 16L29.8844 15.5822ZM15.8221 23.4933C10.8177 23.4933 6.22214 20.7022 3.55548 16C6.22214 11.2978 10.8177 8.50667 15.8221 8.50667C20.8266 8.50667 25.3688 11.3067 28.0799 16C25.3688 20.7022 20.8177 23.4933 15.8221 23.4933Z" fill="black"/>
<path d="M16.0799 9.92889C14.8747 9.93768 13.6991 10.3034 12.7016 10.98C11.7041 11.6565 10.9295 12.6135 10.4756 13.73C10.0217 14.8465 9.90881 16.0725 10.1513 17.2531C10.3937 18.4337 10.9806 19.516 11.8378 20.3633C12.695 21.2106 13.784 21.7848 14.9674 22.0135C16.1508 22.2422 17.3754 22.1151 18.4865 21.6482C19.5977 21.1813 20.5456 20.3956 21.2104 19.3903C21.8753 18.385 22.2273 17.2052 22.2221 16C22.2186 15.1977 22.0569 14.404 21.7461 13.6644C21.4353 12.9247 20.9816 12.2537 20.411 11.6897C19.8404 11.1257 19.1641 10.6799 18.4209 10.3777C17.6777 10.0756 16.8822 9.92303 16.0799 9.92889ZM16.0799 20.3467C15.2286 20.3379 14.3988 20.0778 13.6948 19.5989C12.9909 19.1201 12.4441 18.444 12.1231 17.6554C11.8022 16.8669 11.7214 16.001 11.8909 15.1667C12.0604 14.3324 12.4727 13.5667 13.076 12.966C13.6792 12.3652 14.4465 11.956 15.2815 11.7899C16.1165 11.6238 16.982 11.7081 17.7693 12.0323C18.5565 12.3564 19.2304 12.906 19.7064 13.6119C20.1823 14.3178 20.439 15.1486 20.4443 16C20.4467 16.573 20.3353 17.1407 20.1166 17.6703C19.8979 18.1999 19.5762 18.6808 19.1702 19.0852C18.7642 19.4895 18.282 19.8092 17.7515 20.0257C17.221 20.2423 16.6529 20.3514 16.0799 20.3467Z" fill="black"/>
</g>
<defs>
<clipPath id="clip0_113_3924">
<rect width="32" height="32" fill="white"/>
</clipPath>
</defs>
</svg>
