<svg width="32" height="32" viewBox="0 0 32 32" fill="none" xmlns="http://www.w3.org/2000/svg">
<g clip-path="url(#clip0_113_3923)">
<path d="M22.3911 18.1333C22.646 17.4511 22.7755 16.7283 22.7733 16C22.7733 14.3828 22.1308 12.8318 20.9873 11.6882C19.8437 10.5447 18.2927 9.90222 16.6755 9.90222C15.9561 9.90325 15.2427 10.0327 14.5688 10.2844L16 11.76C16.2176 11.7259 16.4375 11.7081 16.6577 11.7067C17.8012 11.7043 18.8992 12.1544 19.712 12.9588C20.5247 13.7632 20.9861 14.8565 20.9955 16C20.9941 16.2203 20.9762 16.4401 20.9422 16.6578L22.3911 18.1333Z" fill="black"/>
<path d="M30.48 15.5822C27.4845 10.0444 22.2311 6.69333 16.4178 6.69333C14.835 6.69675 13.2627 6.95178 11.76 7.44889L13.1911 8.88889C14.2452 8.61665 15.3291 8.47632 16.4178 8.47111C21.4222 8.47111 25.9733 11.2622 28.6845 15.9644C27.689 17.7084 26.3708 19.2468 24.8 20.4978L26.0622 21.76C27.8815 20.2932 29.392 18.4806 30.5067 16.4267L30.7378 16L30.48 15.5822Z" fill="black"/>
<path d="M4.32881 5.13778L8.29326 9.10222C5.78689 10.715 3.73873 12.9469 2.34659 15.5822L2.11548 16L2.34659 16.4267C5.34214 21.9644 10.5955 25.3156 16.4088 25.3156C18.6779 25.316 20.9177 24.8024 22.9599 23.8133L27.4044 28.2578L28.9599 26.9244L5.84881 3.81333L4.32881 5.13778ZM12.9955 13.8044L18.9066 19.7156C18.2389 20.1294 17.4699 20.3509 16.6844 20.3556C16.1136 20.3556 15.5485 20.2427 15.0216 20.0235C14.4946 19.8043 14.0162 19.483 13.6139 19.0782C13.2116 18.6734 12.8933 18.1931 12.6773 17.6648C12.4613 17.1365 12.352 16.5707 12.3555 16C12.365 15.2235 12.5863 14.4644 12.9955 13.8044ZM11.7066 12.5156C10.875 13.6884 10.4852 15.1176 10.6062 16.5502C10.7273 17.9828 11.3514 19.3264 12.368 20.343C13.3846 21.3596 14.7282 21.9837 16.1608 22.1048C17.5934 22.2258 19.0227 21.8361 20.1955 21.0044L21.6177 22.4267C19.9714 23.1307 18.1994 23.4935 16.4088 23.4933C11.4044 23.4933 6.85326 20.7022 4.14214 16C5.44354 13.6964 7.31726 11.7676 9.58214 10.4L11.7066 12.5156Z" fill="black"/>
</g>
<defs>
<clipPath id="clip0_113_3923">
<rect width="32" height="32" fill="white"/>
</clipPath>
</defs>
</svg>
